<svg xmlns="http://www.w3.org/2000/svg" xmlns:xlink="http://www.w3.org/1999/xlink" id="Layer_1" x="0px" y="0px" viewBox="0 0 3449 1000" style="enable-background:new 0 0 3449 1000;" xml:space="preserve"><style type="text/css">	.st0{fill:url(#SVGID_1_);}	.st1{fill:url(#SVGID_2_);}	.st2{fill:url(#SVGID_3_);}	.st3{fill:url(#SVGID_4_);}	.st4{fill:url(#SVGID_5_);}	.st5{fill:url(#SVGID_6_);}	.st6{fill:url(#SVGID_7_);}	.st7{fill:url(#SVGID_8_);}	.st8{fill:url(#SVGID_9_);}	.st9{fill:url(#SVGID_10_);}	.st10{fill:url(#SVGID_11_);}	.st11{fill:url(#SVGID_12_);}</style><g>	<radialGradient id="SVGID_1_" cx="433" cy="312" r="1202.83" gradientUnits="userSpaceOnUse">		<stop offset="0" style="stop-color:#95B2B7"></stop>		<stop offset="1" style="stop-color:#2D383D"></stop>	</radialGradient>	<path class="st0" d="M580.2,626.3c0,4.4-2.2,30.8,26.4,59.3C626.3,705.4,679,734,723,753.7l58.4-32.4c0,0-68.2-14.7-106-27.4  C591.2,665.9,580.2,621.9,580.2,626.3z"></path>	<radialGradient id="SVGID_2_" cx="433" cy="312" r="1202.83" gradientUnits="userSpaceOnUse">		<stop offset="0" style="stop-color:#95B2B7"></stop>		<stop offset="1" style="stop-color:#2D383D"></stop>	</radialGradient>	<path class="st1" d="M546.3,168.4c-6.6,12.3-21.3,41.3-20.7,53.7c0.5,10.5,10.6,22,10.6,22l54.9,24.2l-39.4-99.5  C550.9,166.4,547.5,166.2,546.3,168.4z"></path>	<radialGradient id="SVGID_3_" cx="433" cy="312" r="1202.83" gradientUnits="userSpaceOnUse">		<stop offset="0" style="stop-color:#95B2B7"></stop>		<stop offset="1" style="stop-color:#2D383D"></stop>	</radialGradient>	<path class="st2" d="M501.1,15.6L63.9,274.8v452.6l167,98.9l-4.3-53.1c-2.4-61.3-3.3-177.2,19.7-232.5  c33-79.1,90.4-121.1,129.6-145c50.5-30.8,149.4-46.1,188.9-41.7c59.3,6.6,51.3,19.1,59.3,35.2c8.8,17.5,19.7,26.3,38.8,41.5  c2.9,2.3,2.9,6.9-0.1,9.1c-20.3,15-51.3,13.4-69.5,21.9c-34.1,16-95.2,60.8-118.6,114.2c-15.4,35.2-17.9,85.2-6.6,134  c18.1,78.5,106.2,116.4,120.9,122.2c1.3,0.5,2.8,0.4,4-0.3l94-54c3.2-1.8,3.1-6.4-0.1-8.1c-17.1-8.9-60.2-32.4-97.9-59.8  c-25.6-18.6-47.5-62.3-35.2-120.8c8.8-41.7,65.9-59.3,79.1-61.5c26.9-4.5,105.3-8.3,115.4-8.7c0.7,0,1.3-0.3,1.8-0.8  c7.4-7.2,65.1-64.1,65.1-80.5c0-7.7-103.6-42.6-128.6-50.9c-3.4-1.1-6.2-3.7-7.6-7c-6.5-14.9-25.3-57.1-30.7-60.7  c-26-17.3-134.8-65.6-149.9-72.2c-1.1-0.5-2-1.4-2.4-2.5l-34.1-85.9c-1-2.4-4.4-2.6-5.5-0.2l-74.1,152.3c-0.6,1.2-1.6,2.1-2.9,2.4  c-16.3,4.7-130.4,41.2-179.3,153.2c-28.7,65.8-25.5,177.5-18.7,253.9l-51.6-30.2V312.4L501,92.3l369.2,220v379.5L517.7,898.3  c-30.5-13.5-77.9-39.6-108.9-80.8c-39.5-52.7-47.5-125.1-35.2-191.1C386.9,556,427,508,463.8,483.5  c52.7-35.2,109.3-53.9,114.2-63.7c4.4-8.8-107.6-11-188.9,41.7c-45.2,29.3-83.5,63.7-109.8,158.2c-12.3,44-2.9,203,17.6,243.9  c1.4,2.9,83.2,50.2,139.3,82.4l65,38.4l435-254.8V274.8L501.1,15.6z"></path></g><g>	<radialGradient id="SVGID_4_" cx="893" cy="928" r="3316.2581" gradientUnits="userSpaceOnUse">		<stop offset="0" style="stop-color:#95B2B7"></stop>		<stop offset="1" style="stop-color:#2D383D"></stop>	</radialGradient>	<path class="st3" d="M1387.5,403.7h68.4l-60.2,224.5h-94.1L1269,492.7l-32.9,135.5h-93.8l-60.5-224.5h68.7l42.3,164.6l42.6-164.6  h67.4l42.6,164.6L1387.5,403.7z"></path>	<radialGradient id="SVGID_5_" cx="893" cy="928" r="3316.2581" gradientUnits="userSpaceOnUse">		<stop offset="0" style="stop-color:#95B2B7"></stop>		<stop offset="1" style="stop-color:#2D383D"></stop>	</radialGradient>	<path class="st4" d="M1592.9,395.8c75.3,0,126.4,48.6,126.4,120.1S1668.2,636,1592.9,636s-126-48.6-126-120.1  S1517.7,395.8,1592.9,395.8z M1592.9,578.3c34.8,0,58.3-25.4,58.3-62.4s-23.5-62.4-58.3-62.4c-34.5,0-58,25.4-58,62.4  S1558.4,578,1592.9,578.3z"></path>	<radialGradient id="SVGID_6_" cx="893" cy="928" r="3316.2581" gradientUnits="userSpaceOnUse">		<stop offset="0" style="stop-color:#95B2B7"></stop>		<stop offset="1" style="stop-color:#2D383D"></stop>	</radialGradient>	<path class="st5" d="M1753.1,628.2V403.7h68v166.8h82.1v57.7H1753.1z"></path>	<radialGradient id="SVGID_7_" cx="893" cy="928" r="3316.2581" gradientUnits="userSpaceOnUse">		<stop offset="0" style="stop-color:#95B2B7"></stop>		<stop offset="1" style="stop-color:#2D383D"></stop>	</radialGradient>	<path class="st6" d="M2003.7,553.9v74.3h-68V403.7h159.6v57.7h-91.6v42.3h73.1v50.2H2003.7z"></path>	<radialGradient id="SVGID_8_" cx="893" cy="928" r="3316.2581" gradientUnits="userSpaceOnUse">		<stop offset="0" style="stop-color:#95B2B7"></stop>		<stop offset="1" style="stop-color:#2D383D"></stop>	</radialGradient>	<path class="st7" d="M2125.3,403.7h114.4c55.2,0,92.5,31.4,92.5,78.1c0,30.1-18.2,53.6-46.4,64.6l52.7,81.8h-74.9l-38.9-73.4h-31.4  v73.4h-68V403.7z M2193.4,452.3v58.6h33.5c20.7,0,37.3-11.3,37.3-29.2c0-18.8-16.6-29.5-37.3-29.5H2193.4z"></path>	<radialGradient id="SVGID_9_" cx="893" cy="928" r="3316.2581" gradientUnits="userSpaceOnUse">		<stop offset="0" style="stop-color:#95B2B7"></stop>		<stop offset="1" style="stop-color:#2D383D"></stop>	</radialGradient>	<path class="st8" d="M2592.8,628.2h-71.2l-9.7-33.9h-77.8l-9.7,33.9h-71.2l70.2-224.5h99.1L2592.8,628.2z M2447.3,546.6h51.7  l-26-85.6L2447.3,546.6z"></path>	<radialGradient id="SVGID_10_" cx="893" cy="928" r="3316.2581" gradientUnits="userSpaceOnUse">		<stop offset="0" style="stop-color:#95B2B7"></stop>		<stop offset="1" style="stop-color:#2D383D"></stop>	</radialGradient>	<path class="st9" d="M2617.6,628.2V403.7h86.9l54.6,152.7l53-152.7h88.4v224.5h-65.8V484.2l-50.5,143.9h-50.2l-50.5-143.9v143.9  H2617.6z"></path>	<radialGradient id="SVGID_11_" cx="893" cy="928" r="3316.2581" gradientUnits="userSpaceOnUse">		<stop offset="0" style="stop-color:#95B2B7"></stop>		<stop offset="1" style="stop-color:#2D383D"></stop>	</radialGradient>	<path class="st10" d="M3012.3,628.2h-68V403.7h68V628.2z"></path>	<radialGradient id="SVGID_12_" cx="893" cy="928" r="3316.2581" gradientUnits="userSpaceOnUse">		<stop offset="0" style="stop-color:#95B2B7"></stop>		<stop offset="1" style="stop-color:#2D383D"></stop>	</radialGradient>	<path class="st11" d="M3041.5,403.7h77.8l47,70.5l47.7-70.5h79.6l-76.2,106l77.1,118.5h-79.6l-48.6-81.2l-48,81.2h-78.1l72.7-118.5  L3041.5,403.7z"></path></g><text transform="matrix(1 0 0 1 994.3359 -756.6787)" style="stroke:#FFFFFF;stroke-miterlimit:10; font-family:'Objective-ExtraBold'; font-size:500px;">WOLFRAMIX</text></svg>