<svg xmlns="http://www.w3.org/2000/svg" xmlns:xlink="http://www.w3.org/1999/xlink" id="Layer_1" x="0px" y="0px" viewBox="0 0 1000 1000" style="enable-background:new 0 0 1000 1000;" xml:space="preserve"><style type="text/css">	.st0{fill:url(#SVGID_1_);}	.st1{fill:url(#SVGID_2_);}	.st2{fill:url(#SVGID_3_);}</style><g>	<radialGradient id="SVGID_1_" cx="795.481" cy="127.628" r="909.3856" gradientUnits="userSpaceOnUse">		<stop offset="0" style="stop-color:#95B2B7"></stop>		<stop offset="1" style="stop-color:#2D383D"></stop>	</radialGradient>	<path class="st0" d="M580.2,626.3c0,4.4-2.2,30.8,26.4,59.3C626.3,705.4,679,734,723,753.7l58.4-32.4c0,0-68.2-14.7-106-27.4  C591.2,665.9,580.2,621.9,580.2,626.3z"></path>	<radialGradient id="SVGID_2_" cx="795.481" cy="127.628" r="909.3856" gradientUnits="userSpaceOnUse">		<stop offset="0" style="stop-color:#95B2B7"></stop>		<stop offset="1" style="stop-color:#2D383D"></stop>	</radialGradient>	<path class="st1" d="M546.3,168.4c-6.6,12.3-21.3,41.3-20.7,53.7c0.5,10.5,10.6,22,10.6,22l54.9,24.2l-39.4-99.5  C550.9,166.4,547.5,166.2,546.3,168.4z"></path>	<radialGradient id="SVGID_3_" cx="795.481" cy="127.628" r="909.3856" gradientUnits="userSpaceOnUse">		<stop offset="0" style="stop-color:#95B2B7"></stop>		<stop offset="1" style="stop-color:#2D383D"></stop>	</radialGradient>	<path class="st2" d="M501.1,15.6L63.9,274.8v452.6l167,98.9l-4.3-53.1c-2.4-61.3-3.3-177.2,19.7-232.5  c33-79.1,90.4-121.1,129.6-145c50.5-30.8,149.4-46.1,188.9-41.7c59.3,6.6,51.3,19.1,59.3,35.2c8.8,17.5,19.7,26.3,38.8,41.5  c2.9,2.3,2.9,6.9-0.1,9.1c-20.3,15-51.3,13.4-69.5,21.9c-34.1,16-95.2,60.8-118.6,114.2c-15.4,35.2-17.9,85.2-6.6,134  c18.1,78.5,106.2,116.4,120.9,122.2c1.3,0.5,2.8,0.4,4-0.3l94-54c3.2-1.8,3.1-6.4-0.1-8.1c-17.1-8.9-60.2-32.4-97.9-59.8  c-25.6-18.6-47.5-62.3-35.2-120.8c8.8-41.7,65.9-59.3,79.1-61.5c26.9-4.5,105.3-8.3,115.4-8.7c0.7,0,1.3-0.3,1.8-0.8  c7.4-7.2,65.1-64.1,65.1-80.5c0-7.7-103.6-42.6-128.6-50.9c-3.4-1.1-6.2-3.7-7.6-7c-6.5-14.9-25.3-57.1-30.7-60.7  c-26-17.3-134.8-65.6-149.9-72.2c-1.1-0.5-2-1.4-2.4-2.5l-34.1-85.9c-1-2.4-4.4-2.6-5.5-0.2l-74.1,152.3c-0.6,1.2-1.6,2.1-2.9,2.4  c-16.3,4.7-130.4,41.2-179.3,153.2c-28.7,65.8-25.5,177.5-18.7,253.9l-51.6-30.2V312.4L501,92.3l369.2,220v379.5L517.7,898.3  c-30.5-13.5-77.9-39.6-108.9-80.8c-39.5-52.7-47.5-125.1-35.2-191.1C386.9,556,427,508,463.8,483.5  c52.7-35.2,109.3-53.9,114.2-63.7c4.4-8.8-107.6-11-188.9,41.7c-45.2,29.3-83.5,63.7-109.8,158.2c-12.3,44-2.9,203,17.6,243.9  c1.4,2.9,83.2,50.2,139.3,82.4l65,38.4l435-254.8V274.8L501.1,15.6z"></path></g></svg>